<!DOCTYPE svg PUBLIC "-//W3C//DTD SVG 20010904//EN" "http://www.w3.org/TR/2001/REC-SVG-20010904/DTD/svg10.dtd">
<svg version="1.0" xmlns="http://www.w3.org/2000/svg" width="162px" height="116px" viewBox="0 0 1620 1160" preserveAspectRatio="xMidYMid meet"><g fill="#0c0c0c" stroke="none">
 <path d="M966 1152 c5 -5 32 -18 59 -29 l50 -20 57 21 c31 12 60 25 64 29 4 4 -48 7 -116 7 -68 0 -120 -4 -114 -8z"/>
 <path d="M985 1065 l-50 -44 40 0 c34 0 44 5 68 36 20 28 24 39 15 45 -19 11 -19 12 -73 -37z"/>
 <path d="M912 985 c-14 -30 -16 -72 -4 -79 12 -7 112 52 112 67 0 23 -23 37 -60 37 -30 0 -39 -5 -48 -25z"/>
 <path d="M962 914 c-24 -15 -40 -30 -35 -34 16 -15 143 -82 143 -75 0 3 -11 23 -25 43 -14 20 -25 49 -25 64 0 34 -4 34 -58 2z"/>
 <path d="M43 867 c-24 -5 -43 -13 -43 -16 0 -4 235 -53 523 -110 287 -56 531 -105 542 -108 11 -3 17 -3 14 1 -4 4 -105 41 -225 82 -210 73 -230 78 -489 120 -148 24 -272 43 -275 43 -3 -1 -24 -6 -47 -12z"/>
 <path d="M788 846 c-53 -17 -100 -34 -104 -38 -4 -5 17 -8 47 -8 30 -1 115 -5 189 -10 74 -4 136 -7 138 -5 5 4 -154 95 -164 94 -5 -1 -53 -15 -106 -33z"/>
 <path d="M658 863 c-38 -4 -46 -16 -29 -42 7 -11 25 -8 97 17 l89 30 -60 0 c-33 -1 -77 -3 -97 -5z"/>
 <path d="M37 819 c4 -4 91 -43 193 -87 l185 -79 300 -17 c165 -9 313 -19 329 -21 16 -3 27 -2 23 1 -3 3 -238 52 -522 108 -283 57 -512 99 -508 95z"/>
 <path d="M711 781 c22 -14 479 -171 479 -165 0 3 -21 38 -47 78 l-47 73 -125 7 c-69 3 -160 9 -201 12 -53 3 -70 2 -59 -5z"/>
 <path d="M1140 721 c21 -41 172 -272 175 -269 2 2 0 38 -2 80 l-6 78 -56 42 c-31 23 -71 53 -90 67 l-34 26 13 -24z"/>
 <path d="M401 621 c-6 -11 -8 -22 -4 -24 5 -2 182 -71 395 -152 l387 -147 61 52 c33 29 63 51 65 48 3 -2 -20 -26 -51 -52 -30 -27 -52 -52 -47 -56 4 -3 35 -17 67 -29 l59 -21 -7 77 c-3 43 -12 83 -19 89 -6 7 -187 56 -400 110 -214 54 -384 100 -379 102 6 2 179 -40 385 -92 207 -53 380 -96 386 -96 11 0 -57 118 -85 149 -13 14 -550 54 -674 49 -36 -1 -79 1 -97 5 -26 7 -33 5 -42 -12z"/>
 <path d="M1324 543 c2 -10 7 -81 11 -158 6 -129 29 -265 44 -265 3 0 16 15 29 33 18 28 22 47 22 114 0 75 -3 87 -50 187 -45 96 -69 134 -56 89z"/>
 <path d="M745 401 l250 -139 95 -6 c52 -4 118 -9 145 -12 28 -4 47 -3 44 0 -7 8 -761 296 -774 296 -5 0 103 -63 240 -139z"/>
 <path d="M1060 238 c0 -2 58 -29 129 -58 86 -36 127 -58 124 -66 -3 -7 -1 -19 3 -26 5 -7 9 -19 11 -27 3 -23 20 -33 41 -26 17 5 19 11 13 28 -6 14 -16 21 -27 19 -11 -2 -15 1 -9 5 6 4 11 15 13 23 4 15 -17 101 -27 111 -7 8 -271 24 -271 17z"/>
 <path d="M1100 155 l74 -75 63 0 c63 0 74 8 55 36 -6 11 -242 114 -259 114 -4 0 26 -34 67 -75z"/>
 <path d="M1411 139 c-13 -17 -21 -32 -19 -33 1 -1 44 0 93 3 l90 6 -63 28 c-35 15 -67 27 -71 27 -4 0 -17 -14 -30 -31z"/>
 <path d="M1422 91 c-39 -6 -42 -8 -30 -24 13 -18 18 -18 108 -2 52 9 99 21 105 26 10 10 -110 10 -183 0z"/>
 <path d="M1235 61 c-19 -8 -19 -8 0 -18 29 -15 85 -24 85 -14 0 38 -35 51 -85 32z"/>
 </g>

<g fill="#ffffff" stroke="none">
 <path d="M0 1010 c0 -163 -2 -158 60 -140 28 8 91 1 305 -34 259 -42 279 -47 489 -120 201 -69 270 -97 206 -82 -59 14 -1038 206 -1048 206 -9 0 -12 -109 -12 -420 l0 -420 810 0 810 0 0 580 0 580 -208 0 c-115 0 -212 -3 -216 -7 -4 -4 -33 -17 -64 -29 l-57 -21 -50 20 c-27 11 -54 24 -60 29 -5 4 -224 8 -487 8 l-478 0 0 -150z m1058 92 c9 -6 5 -17 -15 -45 -24 -31 -34 -36 -68 -36 l-40 0 50 44 c54 49 54 48 73 37z m-50 -104 c7 -7 12 -18 12 -25 0 -15 -100 -74 -112 -67 -12 7 -10 49 4 79 9 20 18 25 48 25 20 0 41 -5 48 -12z m12 -86 c0 -15 11 -44 25 -64 14 -20 25 -40 25 -43 0 -7 -127 60 -143 75 -8 7 68 60 86 60 4 0 7 -12 7 -28z m-38 -78 c43 -26 78 -48 76 -49 -2 -2 -64 1 -138 5 -74 5 -159 9 -189 10 -30 0 -51 3 -47 8 7 6 190 69 210 71 5 1 45 -20 88 -45z m-256 4 c-72 -25 -90 -28 -97 -17 -23 37 -3 45 126 47 l60 0 -89 -30z m341 -222 c4 -3 -7 -4 -23 -1 -16 2 -164 12 -329 21 l-300 17 -185 79 c-102 44 -189 83 -193 87 -4 4 225 -38 508 -95 284 -56 519 -105 522 -108z m-96 158 l125 -7 47 -73 c26 -40 47 -75 47 -78 0 -6 -457 151 -479 165 -11 7 6 8 59 5 41 -3 132 -9 201 -12z m280 -122 l56 -42 6 -78 c2 -42 4 -78 2 -80 -3 -3 -154 228 -175 269 l-13 24 34 -26 c19 -14 59 -44 90 -67z m-711 -24 c124 5 661 -35 674 -49 28 -31 96 -149 85 -149 -6 0 -179 43 -386 96 -206 52 -379 94 -385 92 -5 -2 165 -48 379 -102 213 -54 394 -103 400 -110 7 -6 16 -46 19 -89 l7 -77 -59 21 c-32 12 -63 26 -67 29 -5 4 17 29 47 56 31 26 54 50 51 52 -2 3 -32 -19 -65 -48 l-61 -52 -387 147 c-213 81 -390 150 -395 152 -4 2 -2 13 4 24 9 17 16 19 42 12 18 -4 61 -6 97 -5z m840 -174 c47 -100 50 -112 50 -187 0 -67 -4 -86 -22 -114 -13 -18 -26 -33 -29 -33 -15 0 -38 136 -44 265 -4 77 -9 148 -11 158 -13 45 11 7 56 -89z m-486 -59 c209 -80 382 -148 385 -151 3 -3 -16 -4 -44 0 -27 3 -93 8 -145 12 l-95 6 -250 139 c-137 76 -245 139 -240 139 6 0 181 -65 389 -145z m437 -174 c10 -10 31 -96 27 -111 -2 -8 -7 -19 -13 -23 -6 -4 -2 -7 9 -5 11 2 21 -5 27 -19 6 -17 4 -23 -13 -28 -21 -7 -38 3 -41 26 -2 8 -6 20 -11 27 -4 7 -6 19 -3 26 3 8 -38 30 -124 66 -71 29 -129 56 -129 58 0 7 264 -9 271 -17z m-168 -42 c67 -28 125 -56 129 -63 19 -28 8 -36 -55 -36 l-63 0 -74 75 c-41 41 -71 75 -67 75 4 0 62 -23 130 -51z m349 -36 l63 -28 -90 -6 c-49 -3 -92 -4 -93 -3 -6 4 41 64 49 64 4 0 36 -12 71 -27z m93 -52 c-6 -5 -53 -17 -105 -26 -90 -16 -95 -16 -108 2 -12 16 -9 18 30 24 73 10 193 10 183 0z m-291 -37 c3 -9 6 -20 6 -25 0 -10 -56 -1 -85 14 -19 10 -19 10 0 18 34 13 73 10 79 -7z"/>
 </g>

</svg>